<?xml version="1.0" encoding="UTF-8" standalone="no"?>
<!DOCTYPE svg PUBLIC "-//W3C//DTD SVG 1.1//EN"
 "http://www.w3.org/Graphics/SVG/1.1/DTD/svg11.dtd">
<!-- Generated by graphviz version 2.40.1 (20161225.0304)
 -->
<!-- Title: dependencies Pages: 1 -->
<svg width="504pt" height="287pt"
 viewBox="0.00 0.00 504.00 287.00" xmlns="http://www.w3.org/2000/svg" xmlns:xlink="http://www.w3.org/1999/xlink">
<g id="graph0" class="graph" transform="scale(1 1) rotate(0) translate(4 283)">
<title>dependencies</title>
<polygon fill="#ffffff" stroke="transparent" points="-4,4 -4,-283 500,-283 500,4 -4,4"/>
<text text-anchor="start" x="227.0091" y="-42.4" font-family="sans-serif" font-weight="bold" font-size="14.00" fill="#000000">Legend</text>
<polygon fill="#ffffb3" stroke="transparent" points="14,-10 14,-30 34,-30 34,-10 14,-10"/>
<text text-anchor="start" x="37.629" y="-15.4" font-family="sans-serif" font-size="14.00" fill="#000000"> &#160;Declarations</text>
<polygon fill="#8dd3c7" stroke="transparent" points="127,-10 127,-30 147,-30 147,-10 127,-10"/>
<text text-anchor="start" x="150.7251" y="-15.4" font-family="sans-serif" font-size="14.00" fill="#000000"> &#160;Module</text>
<polygon fill="#80b1d3" stroke="transparent" points="213,-10 213,-30 233,-30 233,-10 213,-10"/>
<text text-anchor="start" x="236.7812" y="-15.4" font-family="sans-serif" font-size="14.00" fill="#000000"> &#160;Bootstrap</text>
<polygon fill="#fdb462" stroke="transparent" points="310,-10 310,-30 330,-30 330,-10 310,-10"/>
<text text-anchor="start" x="333.6732" y="-15.4" font-family="sans-serif" font-size="14.00" fill="#000000"> &#160;Providers</text>
<polygon fill="#fb8072" stroke="transparent" points="406,-10 406,-30 426,-30 426,-10 406,-10"/>
<text text-anchor="start" x="429.7258" y="-15.4" font-family="sans-serif" font-size="14.00" fill="#000000"> &#160;Exports</text>
<g id="clust1" class="cluster">
<title>cluster_AppModule</title>
<polygon fill="none" stroke="#000000" stroke-dasharray="1,5" points="129,-146 129,-271 367,-271 367,-146 129,-146"/>
</g>
<g id="clust3" class="cluster">
<title>cluster_AppModule_imports</title>
<polygon fill="none" stroke="#000000" points="137,-154 137,-206 359,-206 359,-154 137,-154"/>
</g>
<g id="clust7" class="cluster">
<title>cluster_EventModule</title>
<polygon fill="none" stroke="#000000" stroke-dasharray="1,5" points="84,-70 84,-138 242,-138 242,-70 84,-70"/>
</g>
<g id="clust12" class="cluster">
<title>cluster_EventModule_providers</title>
<polygon fill="none" stroke="#000000" points="92,-78 92,-130 234,-130 234,-78 92,-78"/>
</g>
<g id="clust13" class="cluster">
<title>cluster_VenueModule</title>
<polygon fill="none" stroke="#000000" stroke-dasharray="1,5" points="250,-70 250,-138 412,-138 412,-70 250,-70"/>
</g>
<g id="clust18" class="cluster">
<title>cluster_VenueModule_providers</title>
<polygon fill="none" stroke="#000000" points="258,-78 258,-130 404,-130 404,-78 258,-78"/>
</g>
<!-- EventModule -->
<g id="node1" class="node">
<title>EventModule</title>
<polygon fill="#8dd3c7" stroke="#000000" points="237.2078,-198 234.2078,-202 213.2078,-202 210.2078,-198 144.7922,-198 144.7922,-162 237.2078,-162 237.2078,-198"/>
<text text-anchor="middle" x="191" y="-175.8" font-family="Times,serif" font-size="14.00" fill="#000000">EventModule</text>
</g>
<!-- AppModule -->
<g id="node3" class="node">
<title>AppModule</title>
<polygon fill="#8dd3c7" stroke="#000000" points="288.6571,-263 285.6571,-267 264.6571,-267 261.6571,-263 205.3429,-263 205.3429,-227 288.6571,-227 288.6571,-263"/>
<text text-anchor="middle" x="247" y="-240.8" font-family="Times,serif" font-size="14.00" fill="#000000">AppModule</text>
</g>
<!-- EventModule&#45;&gt;AppModule -->
<g id="edge1" class="edge">
<title>EventModule&#45;&gt;AppModule</title>
<path fill="none" stroke="#000000" d="M221.1378,-198.1061C221.1378,-198.1061 221.1378,-216.991 221.1378,-216.991"/>
<polygon fill="#000000" stroke="#000000" points="217.6379,-216.9909 221.1378,-226.991 224.6379,-216.991 217.6379,-216.9909"/>
</g>
<!-- VenueModule -->
<g id="node2" class="node">
<title>VenueModule</title>
<polygon fill="#8dd3c7" stroke="#000000" points="351.0856,-198 348.0856,-202 327.0856,-202 324.0856,-198 254.9144,-198 254.9144,-162 351.0856,-162 351.0856,-198"/>
<text text-anchor="middle" x="303" y="-175.8" font-family="Times,serif" font-size="14.00" fill="#000000">VenueModule</text>
</g>
<!-- VenueModule&#45;&gt;AppModule -->
<g id="edge2" class="edge">
<title>VenueModule&#45;&gt;AppModule</title>
<path fill="none" stroke="#000000" d="M271.8927,-198.1061C271.8927,-198.1061 271.8927,-216.991 271.8927,-216.991"/>
<polygon fill="#000000" stroke="#000000" points="268.3928,-216.9909 271.8927,-226.991 275.3928,-216.991 268.3928,-216.9909"/>
</g>
<!-- EventService -->
<g id="node4" class="node">
<title>EventService</title>
<ellipse fill="#fdb462" stroke="#000000" cx="163" cy="-104" rx="62.5373" ry="18"/>
<text text-anchor="middle" x="163" y="-99.8" font-family="Times,serif" font-size="14.00" fill="#000000">EventService</text>
</g>
<!-- EventService&#45;&gt;EventModule -->
<g id="edge3" class="edge">
<title>EventService&#45;&gt;EventModule</title>
<path fill="none" stroke="#000000" d="M185.2074,-120.8669C185.2074,-120.8669 185.2074,-151.8535 185.2074,-151.8535"/>
<polygon fill="#000000" stroke="#000000" points="181.7075,-151.8534 185.2074,-161.8535 188.7075,-151.8535 181.7075,-151.8534"/>
</g>
<!-- VenueService -->
<g id="node5" class="node">
<title>VenueService</title>
<ellipse fill="#fdb462" stroke="#000000" cx="331" cy="-104" rx="65.3878" ry="18"/>
<text text-anchor="middle" x="331" y="-99.8" font-family="Times,serif" font-size="14.00" fill="#000000">VenueService</text>
</g>
<!-- VenueService&#45;&gt;VenueModule -->
<g id="edge4" class="edge">
<title>VenueService&#45;&gt;VenueModule</title>
<path fill="none" stroke="#000000" d="M308.4246,-121.2456C308.4246,-121.2456 308.4246,-151.7629 308.4246,-151.7629"/>
<polygon fill="#000000" stroke="#000000" points="304.9247,-151.7628 308.4246,-161.7629 311.9247,-151.7629 304.9247,-151.7628"/>
</g>
</g>
</svg>
