<?xml version="1.0" encoding="UTF-8" standalone="no"?>
<!DOCTYPE svg PUBLIC "-//W3C//DTD SVG 1.1//EN"
 "http://www.w3.org/Graphics/SVG/1.1/DTD/svg11.dtd">
<!-- Generated by graphviz version 2.40.1 (20161225.0304)
 -->
<!-- Title: dependencies Pages: 1 -->
<svg width="504pt" height="211pt"
 viewBox="0.00 0.00 504.00 211.00" xmlns="http://www.w3.org/2000/svg" xmlns:xlink="http://www.w3.org/1999/xlink">
<g id="graph0" class="graph" transform="scale(1 1) rotate(0) translate(4 207)">
<title>dependencies</title>
<polygon fill="#ffffff" stroke="transparent" points="-4,4 -4,-207 500,-207 500,4 -4,4"/>
<text text-anchor="start" x="227.0091" y="-42.4" font-family="sans-serif" font-weight="bold" font-size="14.00" fill="#000000">Legend</text>
<polygon fill="#ffffb3" stroke="transparent" points="14,-10 14,-30 34,-30 34,-10 14,-10"/>
<text text-anchor="start" x="37.629" y="-15.4" font-family="sans-serif" font-size="14.00" fill="#000000"> &#160;Declarations</text>
<polygon fill="#8dd3c7" stroke="transparent" points="127,-10 127,-30 147,-30 147,-10 127,-10"/>
<text text-anchor="start" x="150.7251" y="-15.4" font-family="sans-serif" font-size="14.00" fill="#000000"> &#160;Module</text>
<polygon fill="#80b1d3" stroke="transparent" points="213,-10 213,-30 233,-30 233,-10 213,-10"/>
<text text-anchor="start" x="236.7812" y="-15.4" font-family="sans-serif" font-size="14.00" fill="#000000"> &#160;Bootstrap</text>
<polygon fill="#fdb462" stroke="transparent" points="310,-10 310,-30 330,-30 330,-10 310,-10"/>
<text text-anchor="start" x="333.6732" y="-15.4" font-family="sans-serif" font-size="14.00" fill="#000000"> &#160;Providers</text>
<polygon fill="#fb8072" stroke="transparent" points="406,-10 406,-30 426,-30 426,-10 406,-10"/>
<text text-anchor="start" x="429.7258" y="-15.4" font-family="sans-serif" font-size="14.00" fill="#000000"> &#160;Exports</text>
<g id="clust1" class="cluster">
<title>cluster_AppModule</title>
<polygon fill="none" stroke="#000000" stroke-dasharray="1,5" points="129,-70 129,-195 367,-195 367,-70 129,-70"/>
</g>
<g id="clust3" class="cluster">
<title>cluster_AppModule_imports</title>
<polygon fill="none" stroke="#000000" points="137,-78 137,-130 359,-130 359,-78 137,-78"/>
</g>
<!-- EventModule -->
<g id="node1" class="node">
<title>EventModule</title>
<polygon fill="#8dd3c7" stroke="#000000" points="351.2078,-122 348.2078,-126 327.2078,-126 324.2078,-122 258.7922,-122 258.7922,-86 351.2078,-86 351.2078,-122"/>
<text text-anchor="middle" x="305" y="-99.8" font-family="Times,serif" font-size="14.00" fill="#000000">EventModule</text>
</g>
<!-- AppModule -->
<g id="node3" class="node">
<title>AppModule</title>
<polygon fill="#8dd3c7" stroke="#000000" points="290.6571,-187 287.6571,-191 266.6571,-191 263.6571,-187 207.3429,-187 207.3429,-151 290.6571,-151 290.6571,-187"/>
<text text-anchor="middle" x="249" y="-164.8" font-family="Times,serif" font-size="14.00" fill="#000000">AppModule</text>
</g>
<!-- EventModule&#45;&gt;AppModule -->
<g id="edge1" class="edge">
<title>EventModule&#45;&gt;AppModule</title>
<path fill="none" stroke="#000000" d="M274.8622,-122.1061C274.8622,-122.1061 274.8622,-140.991 274.8622,-140.991"/>
<polygon fill="#000000" stroke="#000000" points="271.3623,-140.9909 274.8622,-150.991 278.3623,-140.991 271.3623,-140.9909"/>
</g>
<!-- VenueModule -->
<g id="node2" class="node">
<title>VenueModule</title>
<polygon fill="#8dd3c7" stroke="#000000" points="241.0856,-122 238.0856,-126 217.0856,-126 214.0856,-122 144.9144,-122 144.9144,-86 241.0856,-86 241.0856,-122"/>
<text text-anchor="middle" x="193" y="-99.8" font-family="Times,serif" font-size="14.00" fill="#000000">VenueModule</text>
</g>
<!-- VenueModule&#45;&gt;AppModule -->
<g id="edge2" class="edge">
<title>VenueModule&#45;&gt;AppModule</title>
<path fill="none" stroke="#000000" d="M224.1073,-122.1061C224.1073,-122.1061 224.1073,-140.991 224.1073,-140.991"/>
<polygon fill="#000000" stroke="#000000" points="220.6074,-140.9909 224.1073,-150.991 227.6074,-140.991 220.6074,-140.9909"/>
</g>
</g>
</svg>
